PathFileType	4	(X/Y/Z)	C:/Users/beibeiliu/ov580/test_trc/User1\sequence.22_training_dense_left.trc
DataRate	CameraRate	NumFrames	NumMarkers	Units	OrigDataRate	OrigDataStartFrame	OrigNumFrames
120	120	16	19	mm	120	137	273
Frame#	Time	ThumbCMC			ThumbMCP			ThumbIP			ThumbTip			IndexMCP			IndexPIP			IndexTip			MiddleMCP			MiddlePIP			MiddleTip			RingMCP			RingPIP			RingTip			PinkyMCP			PinkyPIP			PinkyTip			BackHand1			BackHand2			BackHand3	
		X0	Y0	Z0	X1	Y1	Z1	X2	Y2	Z2	X3	Y3	Z3	X4	Y4	Z4	X5	Y5	Z5	X6	Y6	Z6	X7	Y7	Z7	X8	Y8	Z8	X9	Y9	Z9	X10	Y10	Z10	X11	Y11	Z11	X12	Y12	Z12	X13	Y13	Z13	X14	Y14	Z14	X15	Y15	Z15	X16	Y16	Z16	X17	Y17	Z17	X18	Y18	Z18	
136	1.13333	-135.866	24.0848	39.312	-117.07	9.63181	11.3795	-104.534	6.2346	-9.63573	-91.7382	1.50421	-32.1448	-120.249	60.2768	-35.0383	-118.858	48.1361	-60.8478	-119.854	25.9316	-78.8221	-142.259	48.1725	-44.0341	-138.067	13.7341	-42.5581	-144.275	14.2323	-2.2072	-166.5	36.8756	-41.2939	-160.534	6.67265	-32.0071	-166.356	16.522	3.82131	-186.512	29.0909	-36.9818	-178.947	5.53149	-22.0239	-176.049	22.9529	10.3235	-183.633	62.5398	13.2145	-197.913	54.3132	42.4578	-158.819	59.5638	37.5459	
137	1.14167	-135.548	25.2802	39.4571	-118.013	8.90734	12.7753	-107.133	9.57843	-14.952	-95.9299	3.95134	-36.3098	-120.522	63.5648	-30.5417	-112.878	49.6314	-59.426	-112.92	27.1939	-78.4319	-142.676	52.0881	-40.7445	-137.175	15.2739	-42.814	-147.907	14.7528	-4.08447	-168.083	39.4363	-41.8605	-162.637	7.31948	-32.1633	-163.739	17.9049	3.3331	-185.675	32.0549	-36.4359	-177.195	7.64344	-21.9446	-173.947	19.0745	6.76748	-184.413	64.466	12.7651	-197.086	52.0491	43.4475	-156.01	60.7625	39.0036	
138	1.15	-135.407	24.3677	40.6766	-119.549	10.7498	10.6569	-104.003	10.78	-18.4732	-95.1728	4.25706	-37.421	-119.803	65.3673	-33.4621	-116.318	51.4477	-61.804	-113.065	27.7241	-80.5283	-143.834	52.2917	-45.642	-138.078	17.6565	-42.7767	-146.127	16.3883	-5.10507	-165.82	42.6588	-42.204	-158.429	9.93464	-32.3562	-166.68	16.8095	-0.339453	-182.5	33.8753	-37.1784	-176.084	8.96838	-22.9451	-173.191	20.2335	5.24911	-185.619	68.2612	8.57756	-196.276	52.454	45.1376	-154.881	62.2463	37.1296	
139	1.15833	-130.715	26.4077	37.9266	-116.016	13.2425	7.08171	-106.732	13.6042	-19.7385	-98.5	8.33045	-37.6597	-117.116	67.2971	-33.9107	-112.736	53.2616	-61.8781	-115.609	32.6831	-78.9604	-144.838	53.4951	-47.785	-138.564	21.8896	-47.0172	-143.948	17.5306	-7.28742	-165.074	41.7526	-43.5613	-159.629	10.3982	-30.8981	-162.482	20.678	0.903049	-186.542	39.1448	-36.7022	-176.154	11.4873	-26.7343	-176.478	23.8915	5.49305	-184.759	66.1245	12.2943	-195.677	56.7673	40.339	-158.549	61.517	38.0884	
140	1.16667	-132.068	28.0913	37.3702	-115.84	12.9479	8.53172	-105.139	13.5365	-19.2198	-94.5669	9.02455	-41.4522	-120.106	68.2724	-34.5405	-114.572	54.8851	-62.9444	-115.661	33.656	-80.3664	-142.375	57.2237	-43.2831	-139.248	22.5194	-46.4732	-144.457	20.7261	-5.51206	-162.796	44.6976	-43.8293	-156.007	11.7406	-30.8662	-160.565	21.3843	0.206211	-184.941	38.0372	-38.049	-174.669	12.9547	-26.638	-171.641	24.7303	1.84249	-184.075	66.8375	10.8905	-195.452	53.0487	44.3879	-154.045	64.7519	37.8629	
141	1.175	-130.452	27.2835	38.8672	-117.014	15.5854	7.56746	-101.767	14.2447	-16.9154	-95.7554	10.8245	-36.535	-116.829	70.1609	-30.383	-112.792	59.4517	-57.7642	-109.927	34.7752	-80.0905	-143.531	59.8697	-43.7416	-134.751	22.4659	-43.768	-142.804	19.8228	-7.05698	-164.702	43.6815	-45.7074	-158.957	14.2002	-34.2816	-163.873	18.9884	-3.00181	-184.608	37.5603	-41.0575	-173.94	14.1012	-29.4123	-172.005	26.8353	5.84115	-182.748	69.2903	7.91488	-195.491	57.0939	40.6826	-157.277	62.4101	37.1856	
142	1.18333	-130.038	26.1352	41.0502	-115.659	16.3826	8.66573	-101.905	16.1419	-16.9194	-93.7046	13.235	-37.5623	-117.696	73.2174	-30.1987	-114.859	61.5993	-59.8085	-113.451	40.3014	-78.8268	-139.791	59.0357	-44.0552	-138.098	25.0479	-46.6372	-147.126	22.6612	-6.322	-162.19	48.1877	-43.499	-158.752	15.2967	-35.3734	-159.24	22.6175	0.457153	-185.364	39.049	-41.5311	-171.413	17.0728	-29.3265	-173.116	23.8258	4.12204	-182.571	69.6681	10.2785	-197.323	57.9754	40.0519	-158.829	63.3338	38.4215	
143	1.19167	-130.857	29.9953	39.4944	-117.283	18.6843	8.27671	-101.574	17.3014	-14.6269	-90.9365	14.0161	-35.3959	-118.684	74.4019	-31.0919	-114.244	66.009	-59.4771	-111.455	43.6905	-80.3741	-143.617	58.7638	-47.1645	-139.405	24.3668	-45.4676	-143.828	22.3547	-6.18886	-164.524	48.6793	-44.3877	-158.946	14.1501	-33.3948	-161.72	18.746	-3.53584	-187.755	42.8052	-39.5655	-172.052	17.4171	-29.5996	-174.846	27.5884	4.61453	-181.931	72.5548	9.09809	-198.644	57.5545	39.6772	-159.968	63.4555	36.3996	
144	1.2	-132.452	30.82	39.1521	-113.422	20.0167	9.45853	-99.0739	18.6772	-13.4812	-83.8959	13.4673	-32.976	-120.815	77.3922	-31.5264	-112.309	68.5538	-60.5878	-108.703	47.1337	-84.222	-144.725	60.5512	-46.419	-138.712	26.5917	-48.7867	-142.275	22.222	-7.22919	-162.46	44.366	-46.5606	-157.779	16.2055	-37.3757	-164.333	21.3316	-0.576005	-184.742	42.4208	-38.7864	-174.143	16.0616	-27.3109	-174.06	24.6683	1.67208	-183.581	71.494	8.36855	-198.671	58.3967	40.0441	-157.849	66.0524	34.0874	
145	1.20833	-130.235	33.4395	36.5833	-115.301	20.0674	9.95495	-98.4515	18.5865	-13.478	-83.9336	12.5019	-29.5754	-122.464	77.86	-36.1069	-117.043	72.7033	-61.4962	-112.648	55.1443	-84.1655	-147.613	59.0028	-46.7717	-141.244	25.3814	-49.4014	-143.428	20.6915	-6.77445	-165.049	47.0324	-44.6702	-159.932	13.9617	-35.2213	-163.813	22.2371	-1.26738	-187.678	35.5833	-43.1696	-176.778	13.4625	-27.8923	-177.308	25.4575	3.2689	-188.357	68.9367	6.51482	-201.391	58.6831	39.0224	-159.689	64.9037	35.4187	
146	1.21667	-136.618	33.0313	36.1796	-119.056	19.7087	9.0478	-97.9256	14.8553	-7.64034	-86.4482	11.1895	-26.5726	-127.121	78.2972	-35.974	-118	75.01	-60.5291	-114.024	56.7862	-90.7242	-146.123	58.9977	-47.8234	-141.675	23.8015	-50.3162	-145.045	18.4576	-11.5184	-166.109	42.199	-48.0269	-159.885	10.7861	-33.0472	-165.211	17.866	-4.2278	-189.488	34.563	-41.2999	-175.036	13.705	-28.0202	-175.101	28.1964	3.51704	-189.064	67.464	6.19549	-201.389	58.5634	37.2844	-163.979	66.8858	34.404	
147	1.225	-135.758	32.937	34.828	-116.972	17.6685	11.2834	-102.585	16.994	-10.8276	-82.855	9.58158	-24.1244	-126.745	78.4453	-34.4768	-122.098	75.5387	-62.98	-118.591	61.6433	-88.9054	-150.907	55.4617	-50.365	-142.272	23.3944	-52.6423	-146.12	16.5764	-14.1655	-171.352	41.3013	-47.5343	-159.87	11.1041	-34.7218	-167.676	19.5648	-1.65931	-192.453	32.2462	-42.8881	-175.978	12.5607	-24.7302	-178.331	28.7673	4.00351	-191.996	67.6169	2.30672	-201.367	55.308	40.4729	-161.045	63.7901	34.3791	
148	1.23333	-135.853	32.0321	37.8751	-118.657	18.8485	9.52295	-102.715	16.0713	-9.32864	-83.6404	7.4252	-22.9504	-132.215	77.5221	-34.4981	-128.937	76.0496	-64.2544	-126.047	62.1555	-92.957	-149.49	56.6136	-49.7496	-142.963	21.9274	-52.1991	-150.783	17.4398	-13.0069	-173.467	38.8283	-48.6305	-162.523	10.2924	-35.9782	-164.746	20.7865	-2.11127	-192.553	32.8752	-41.7728	-176.994	12.332	-25.3079	-180.405	29.2473	3.56471	-192.16	67.3487	2.0604	-200.851	56.4902	41.7722	-163.487	65.2377	32.2968	
149	1.24167	-139.407	32.4914	36.332	-119.526	16.0468	13.0695	-100.277	15.2488	-10.1772	-84.6783	9.40506	-26.4888	-133.765	77.6054	-39.515	-133.064	76.1348	-64.4212	-125.789	61.7887	-94.3672	-151.841	56.4592	-48.8659	-146.873	21.3079	-54.4585	-148.924	18.5501	-10.4194	-171.401	39.8972	-48.2266	-164.876	9.01515	-35.0747	-169.861	16.591	-4.45809	-194.71	33.9131	-40.438	-181.972	9.88123	-28.2826	-183.017	27.365	1.96478	-195.239	67.441	2.44244	-205.728	55.7783	37.9984	-162.988	65.3528	33.3086	
150	1.25	-140.409	34.5849	33.3113	-120.827	18.3814	7.94686	-103.823	14.4858	-7.57498	-86.7696	7.63843	-24.0845	-137.143	77.2257	-36.9345	-129.803	77.2405	-67.4939	-131.233	63.1924	-93.9387	-156.803	53.3898	-52.6533	-149.851	19.0818	-50.8577	-150.879	16.617	-15.0656	-171.007	38.0661	-49.6328	-165.798	8.9329	-34.6675	-169.854	18.9743	-3.75432	-197.651	30.4982	-42.944	-182.226	10.4908	-25.591	-183.235	27.3733	4.5304	-195.658	65.6694	5.55116	-205.017	55.3503	37.184	-165.739	66.2628	32.6195	
151	1.25833	-137.375	34.6745	33.2526	-125.515	20.2047	6.71754	-103.275	16.438	-12.6618	-91.9468	10.1412	-30.0392	-138.915	77.4172	-37.1409	-133.905	75.8972	-67.2108	-131.807	60.4851	-94.91	-159.828	54.6647	-51.057	-150.458	19.4491	-53.521	-152.146	18.1466	-12.7489	-175.37	35.9461	-50.8456	-166.661	9.08543	-34.6133	-171.169	16.8599	-4.9912	-195.349	29.8548	-42.5867	-183.907	8.84914	-25.9195	-184.076	23.7543	2.2987	-199.739	67.7513	1.03095	-208.712	56.0526	35.6992	-170.3	66.6721	26.8002	
